<?xml version="1.0" encoding="utf-8"?>
<!-- Generator: Adobe Illustrator 21.0.0, SVG Export Plug-In . SVG Version: 6.00 Build 0)  -->
<svg version="1.2" baseProfile="tiny" id="Layer_1" xmlns="http://www.w3.org/2000/svg" xmlns:xlink="http://www.w3.org/1999/xlink"
	 x="0px" y="0px" viewBox="0 0 700 700" xml:space="preserve">
<g>
	<path stroke="#000000" stroke-width="43" stroke-linecap="round" stroke-miterlimit="10" d="M442.5,325.1
		c0.5-26.8-20.4-47.9-62.6-63.2l-94-31.5c-70.5-22.9-105.4-55.3-104.6-97.2c0.7-34.9,16.7-59,48.1-72.3
		c31.4-13.3,74.1-19.4,128.1-18.4c54,1.1,95.8,8.3,125.5,21.8c29.7,13.5,47.4,37.3,53,71.3l-90,6.8c-2.3-43-31.3-65.1-86.8-66.1
		c-55.6-1.1-83.7,16.7-84.4,53.2c-0.3,16.1,3.6,29.3,11.6,39.5c8.1,10.2,23.9,19.6,47.4,28.1l92.8,31.5
		c21.9,7.1,39.5,13.9,52.8,20.2c13.3,6.3,25.9,16.2,37.9,29.7c12,13.5,17.8,29.3,17.4,47.4c-0.6,32.2-17.4,54.5-50.4,67
		c-33,12.4-77.4,18.1-133.4,17c-56-1.1-99.6-9.7-130.8-25.7c-31.2-16-50-43.9-56.3-83.7l88.8-4.8c2.6,28.6,11.8,49.1,27.8,61.5
		c15.9,12.4,38.5,18.9,67.6,19.4C410.3,377.9,441.8,360.7,442.5,325.1z"/>
</g>
<g>
	<path d="M155,696.7V490.9h29.7l3.7,20.4c4.8-7.7,11.1-13.6,19-17.8c7.9-4.2,16.7-6.3,26.4-6.3c11.9,0,22.4,3.3,31.4,9.9
		c9,6.6,15.9,15.6,20.6,27c4.7,11.4,7,24.3,7,38.7c0,22.5-5.4,40.8-16.3,54.9c-10.9,14.1-25.6,21.2-44.2,21.2
		c-9.2,0-17.5-1.8-24.9-5.5c-7.4-3.7-13.7-8.6-18.7-14.9c0.7,12.7,1.1,19.8,1.1,21.4v54.9L155,696.7z M224.8,612.6
		c10.3,0,18.4-4.3,24.4-13c5.9-8.6,8.9-21,8.9-37c0-16.3-3-28.6-9-36.8c-6-8.2-14.3-12.3-25-12.3c-22.9,0-34.5,15.6-34.8,46.8
		c0,18,3,31.2,8.9,39.6C204.3,608.4,213.1,612.6,224.8,612.6z"/>
	<path d="M330.4,636.2V490.9h29.1l4.5,22.2c9.5-15.2,23.3-22.9,41.4-22.9c3.8,0,6.9,0.2,9.3,0.5l-0.5,29c-3.5-0.5-7.2-0.8-11-0.8
		c-12.8,0-22.3,3.4-28.6,10.2c-6.3,6.8-9.5,16.2-9.5,28.3v78.8H330.4z"/>
	<path d="M505.9,639c-21.5,0-38.4-7-50.8-20.9c-12.3-13.9-18.5-32.3-18.5-55c0-23.4,6.2-41.9,18.5-55.5
		c12.3-13.5,29.7-20.3,52.2-20.3c21.7,0,38.7,6.9,51,20.7c12.3,13.8,18.4,32.2,18.4,55.1c0,23.2-6.2,41.6-18.6,55.3
		C545.7,632.2,528.3,639,505.9,639z M506.8,612.7c11.7,0,20.5-4.3,26.4-12.8c5.9-8.5,8.9-20.8,8.9-36.8c0-16.1-3-28.4-8.9-36.9
		c-5.9-8.5-14.8-12.7-26.7-12.7c-11.7,0-20.6,4.3-26.5,12.8c-5.9,8.5-8.9,20.8-8.9,37c0,15.9,3,28.1,9,36.6
		C486.1,608.4,495,612.7,506.8,612.7z"/>
</g>
<g>
</g>
<g>
</g>
<g>
</g>
<g>
</g>
<g>
</g>
</svg>
